<svg width="389" height="74" viewBox="0 0 389 74" fill="none" xmlns="http://www.w3.org/2000/svg">
<path d="M27.4258 46.6L20.0258 54.5V72H0.425781V2H20.0258V31.1L47.1258 2H68.9258L40.3258 33L70.4258 72H47.4258L27.4258 46.6ZM131.821 56.7V72H75.6211V2H130.521V17.3H95.2211V29.1H126.321V43.9H95.2211V56.7H131.821ZM209.409 2V72H193.109L162.209 34.7V72H142.809V2H159.109L190.009 39.3V2H209.409ZM247.975 73.4C242.308 73.4 236.808 72.7 231.475 71.3C226.142 69.9 221.808 68.0333 218.475 65.7L224.975 51.1C228.108 53.1667 231.742 54.8333 235.875 56.1C240.008 57.3667 244.075 58 248.075 58C255.675 58 259.475 56.1 259.475 52.3C259.475 50.3 258.375 48.8333 256.175 47.9C254.042 46.9 250.575 45.8667 245.775 44.8C240.508 43.6667 236.108 42.4667 232.575 41.2C229.042 39.8667 226.008 37.7667 223.475 34.9C220.942 32.0333 219.675 28.1667 219.675 23.3C219.675 19.0333 220.842 15.2 223.175 11.8C225.508 8.33333 228.975 5.6 233.575 3.6C238.242 1.6 243.942 0.599995 250.675 0.599995C255.275 0.599995 259.808 1.13333 264.275 2.2C268.742 3.2 272.675 4.7 276.075 6.69999L269.975 21.4C263.308 17.8 256.842 16 250.575 16C246.642 16 243.775 16.6 241.975 17.8C240.175 18.9333 239.275 20.4333 239.275 22.3C239.275 24.1667 240.342 25.5667 242.475 26.5C244.608 27.4333 248.042 28.4 252.775 29.4C258.108 30.5333 262.508 31.7667 265.975 33.1C269.508 34.3667 272.542 36.4333 275.075 39.3C277.675 42.1 278.975 45.9333 278.975 50.8C278.975 55 277.808 58.8 275.475 62.2C273.142 65.6 269.642 68.3333 264.975 70.4C260.308 72.4 254.642 73.4 247.975 73.4ZM354.721 2V72H334.921V44.7H307.921V72H288.121V2H307.921V28.3H334.921V2H354.721ZM368.688 2H388.488V72H368.688V2Z" fill="black"/>
</svg>
